<mxfile host="app.diagrams.net" modified="2022-07-05T14:40:35.856Z" agent="5.0 (Windows NT 10.0; Win64; x64) AppleWebKit/537.36 (KHTML, like Gecko) Chrome/103.0.5060.66 Safari/537.36 Edg/103.0.1264.44" etag="d6XBwbdVqJiyuNEfzhL2" version="17.4.2" type="github">
  <diagram id="V5U_KkYaPqWeT6ajfPoB" name="Page-1">
    <mxGraphModel dx="1422" dy="804" grid="1" gridSize="10" guides="1" tooltips="1" connect="1" arrows="1" fold="1" page="1" pageScale="1" pageWidth="850" pageHeight="1100" math="0" shadow="0">
      <root>
        <mxCell id="0" />
        <mxCell id="1" parent="0" />
        <mxCell id="W6yEfXLbLqS_vUzd7XXr-1" value="" style="outlineConnect=0;dashed=0;verticalLabelPosition=bottom;verticalAlign=top;align=center;html=1;shape=mxgraph.aws3.codepipeline;fillColor=#759C3E;gradientColor=none;" vertex="1" parent="1">
          <mxGeometry x="386.25" y="100" width="67.5" height="81" as="geometry" />
        </mxCell>
        <mxCell id="W6yEfXLbLqS_vUzd7XXr-2" value="" style="rounded=1;whiteSpace=wrap;html=1;rotation=90;" vertex="1" parent="1">
          <mxGeometry x="200" y="320" width="440" height="200" as="geometry" />
        </mxCell>
        <mxCell id="W6yEfXLbLqS_vUzd7XXr-18" style="edgeStyle=orthogonalEdgeStyle;rounded=0;orthogonalLoop=1;jettySize=auto;html=1;exitX=0.5;exitY=1;exitDx=0;exitDy=0;entryX=0.5;entryY=0;entryDx=0;entryDy=0;" edge="1" parent="1" source="W6yEfXLbLqS_vUzd7XXr-3" target="W6yEfXLbLqS_vUzd7XXr-4">
          <mxGeometry relative="1" as="geometry" />
        </mxCell>
        <mxCell id="W6yEfXLbLqS_vUzd7XXr-3" value="Source Stage" style="shape=process;whiteSpace=wrap;html=1;backgroundOutline=1;" vertex="1" parent="1">
          <mxGeometry x="360" y="210" width="120" height="60" as="geometry" />
        </mxCell>
        <mxCell id="W6yEfXLbLqS_vUzd7XXr-20" style="edgeStyle=orthogonalEdgeStyle;rounded=0;orthogonalLoop=1;jettySize=auto;html=1;exitX=0.5;exitY=1;exitDx=0;exitDy=0;entryX=0.5;entryY=0;entryDx=0;entryDy=0;" edge="1" parent="1" source="W6yEfXLbLqS_vUzd7XXr-4" target="W6yEfXLbLqS_vUzd7XXr-5">
          <mxGeometry relative="1" as="geometry" />
        </mxCell>
        <mxCell id="W6yEfXLbLqS_vUzd7XXr-4" value="Build Stage" style="shape=process;whiteSpace=wrap;html=1;backgroundOutline=1;" vertex="1" parent="1">
          <mxGeometry x="360" y="290" width="120" height="60" as="geometry" />
        </mxCell>
        <mxCell id="W6yEfXLbLqS_vUzd7XXr-23" style="edgeStyle=orthogonalEdgeStyle;rounded=0;orthogonalLoop=1;jettySize=auto;html=1;" edge="1" parent="1" source="W6yEfXLbLqS_vUzd7XXr-5" target="W6yEfXLbLqS_vUzd7XXr-9">
          <mxGeometry relative="1" as="geometry" />
        </mxCell>
        <mxCell id="W6yEfXLbLqS_vUzd7XXr-25" value="call Lambda function" style="edgeLabel;html=1;align=center;verticalAlign=middle;resizable=0;points=[];" vertex="1" connectable="0" parent="W6yEfXLbLqS_vUzd7XXr-23">
          <mxGeometry x="0.2935" relative="1" as="geometry">
            <mxPoint as="offset" />
          </mxGeometry>
        </mxCell>
        <mxCell id="W6yEfXLbLqS_vUzd7XXr-5" value="Code Analysis Stage" style="shape=process;whiteSpace=wrap;html=1;backgroundOutline=1;" vertex="1" parent="1">
          <mxGeometry x="360" y="370" width="120" height="60" as="geometry" />
        </mxCell>
        <mxCell id="W6yEfXLbLqS_vUzd7XXr-6" value="CF Stack Deploy Stage" style="shape=process;whiteSpace=wrap;html=1;backgroundOutline=1;" vertex="1" parent="1">
          <mxGeometry x="360" y="550" width="125" height="60" as="geometry" />
        </mxCell>
        <mxCell id="W6yEfXLbLqS_vUzd7XXr-12" style="edgeStyle=orthogonalEdgeStyle;rounded=0;orthogonalLoop=1;jettySize=auto;html=1;entryX=0.457;entryY=0.995;entryDx=0;entryDy=0;entryPerimeter=0;" edge="1" parent="1" source="W6yEfXLbLqS_vUzd7XXr-8" target="W6yEfXLbLqS_vUzd7XXr-2">
          <mxGeometry relative="1" as="geometry" />
        </mxCell>
        <mxCell id="W6yEfXLbLqS_vUzd7XXr-13" value="WebHook" style="edgeLabel;html=1;align=center;verticalAlign=middle;resizable=0;points=[];" vertex="1" connectable="0" parent="W6yEfXLbLqS_vUzd7XXr-12">
          <mxGeometry x="-0.237" relative="1" as="geometry">
            <mxPoint y="1" as="offset" />
          </mxGeometry>
        </mxCell>
        <mxCell id="W6yEfXLbLqS_vUzd7XXr-8" value="" style="dashed=0;outlineConnect=0;html=1;align=center;labelPosition=center;verticalLabelPosition=bottom;verticalAlign=top;shape=mxgraph.weblogos.github" vertex="1" parent="1">
          <mxGeometry x="50" y="363" width="75" height="75" as="geometry" />
        </mxCell>
        <mxCell id="W6yEfXLbLqS_vUzd7XXr-24" style="edgeStyle=orthogonalEdgeStyle;rounded=0;orthogonalLoop=1;jettySize=auto;html=1;entryX=0.75;entryY=1;entryDx=0;entryDy=0;" edge="1" parent="1" source="W6yEfXLbLqS_vUzd7XXr-9" target="W6yEfXLbLqS_vUzd7XXr-5">
          <mxGeometry relative="1" as="geometry">
            <mxPoint x="760" y="642" as="targetPoint" />
            <Array as="points">
              <mxPoint x="760" y="359" />
              <mxPoint x="760" y="520" />
              <mxPoint x="450" y="520" />
            </Array>
          </mxGeometry>
        </mxCell>
        <mxCell id="W6yEfXLbLqS_vUzd7XXr-26" value="Results" style="edgeLabel;html=1;align=center;verticalAlign=middle;resizable=0;points=[];" vertex="1" connectable="0" parent="W6yEfXLbLqS_vUzd7XXr-24">
          <mxGeometry x="-0.5622" y="2" relative="1" as="geometry">
            <mxPoint as="offset" />
          </mxGeometry>
        </mxCell>
        <mxCell id="W6yEfXLbLqS_vUzd7XXr-27" value="Success" style="edgeLabel;html=1;align=center;verticalAlign=middle;resizable=0;points=[];" vertex="1" connectable="0" parent="W6yEfXLbLqS_vUzd7XXr-24">
          <mxGeometry x="0.2902" y="-8" relative="1" as="geometry">
            <mxPoint x="-14" as="offset" />
          </mxGeometry>
        </mxCell>
        <mxCell id="W6yEfXLbLqS_vUzd7XXr-28" value="Failure" style="edgeLabel;html=1;align=center;verticalAlign=middle;resizable=0;points=[];" vertex="1" connectable="0" parent="W6yEfXLbLqS_vUzd7XXr-24">
          <mxGeometry x="0.3201" y="10" relative="1" as="geometry">
            <mxPoint x="-5" as="offset" />
          </mxGeometry>
        </mxCell>
        <mxCell id="W6yEfXLbLqS_vUzd7XXr-9" value="" style="sketch=0;outlineConnect=0;fontColor=#232F3E;gradientColor=none;fillColor=#3F8624;strokeColor=none;dashed=0;verticalLabelPosition=bottom;verticalAlign=top;align=center;html=1;fontSize=12;fontStyle=0;aspect=fixed;pointerEvents=1;shape=mxgraph.aws4.lambda_function;" vertex="1" parent="1">
          <mxGeometry x="640" y="320" width="78" height="78" as="geometry" />
        </mxCell>
        <mxCell id="W6yEfXLbLqS_vUzd7XXr-14" value="Code Pipeline" style="text;html=1;align=center;verticalAlign=middle;resizable=0;points=[];autosize=1;strokeColor=none;fillColor=none;" vertex="1" parent="1">
          <mxGeometry x="375" y="180" width="90" height="20" as="geometry" />
        </mxCell>
        <mxCell id="W6yEfXLbLqS_vUzd7XXr-22" value="" style="html=1;labelBackgroundColor=#ffffff;startArrow=none;startFill=0;startSize=6;endArrow=classic;endFill=1;endSize=6;jettySize=auto;orthogonalLoop=1;strokeWidth=1;dashed=1;fontSize=14;rounded=0;entryX=0.5;entryY=0;entryDx=0;entryDy=0;exitX=0.5;exitY=1;exitDx=0;exitDy=0;" edge="1" parent="1" source="W6yEfXLbLqS_vUzd7XXr-5" target="W6yEfXLbLqS_vUzd7XXr-6">
          <mxGeometry width="60" height="60" relative="1" as="geometry">
            <mxPoint x="386" y="500" as="sourcePoint" />
            <mxPoint x="446.25" y="438" as="targetPoint" />
          </mxGeometry>
        </mxCell>
        <mxCell id="W6yEfXLbLqS_vUzd7XXr-29" value="If Success" style="text;html=1;strokeColor=none;fillColor=none;align=center;verticalAlign=middle;whiteSpace=wrap;rounded=0;" vertex="1" parent="1">
          <mxGeometry x="360" y="480" width="60" height="30" as="geometry" />
        </mxCell>
      </root>
    </mxGraphModel>
  </diagram>
</mxfile>
